# xmcd
#
# Track frame offsets:
#       150
#       15435
#       29304
#       41461
#       62940
#       75693
#       92085
#       107910
#       120326
#       132094
#       144631
#       163482
#
# Disc length: 2554 seconds
#
# Revision: 0
# Processed by: cddbd v1.5.2PL0 Copyright (c) Steve Scherf et al.
# Submitted via: WaveLab 4.01
#
DISCID=9c09f80c
DTITLE=Candil Producciones - Adviento "Ven Señor No Tardes"
DYEAR=2010
DGENRE=catholic
TTITLE0=Adviento
TTITLE1=Canten con Gozo
TTITLE2=Una Virgen dara a Luz
TTITLE3=Vamos a preparar el camino del Señor
TTITLE4=Señor a Ti Clamamos
TTITLE5=Ven Señor
TTITLE6=Maranathá
TTITLE7=Ven,Ven Señor no Tardes
TTITLE8=Canción de Adviento
TTITLE9=Un pueblo que camina
TTITLE10=Ven Señor Jesús
TTITLE11=Canta Jerusalén
EXTD=
EXTT0=
EXTT1=
EXTT2=
EXTT3=
EXTT4=
EXTT5=
EXTT6=
EXTT7=
EXTT8=
EXTT9=
EXTT10=
EXTT11=
PLAYORDER=
